<svg xmlns="http://www.w3.org/2000/svg" xmlns:xlink="http://www.w3.org/1999/xlink" version="1.1" id="Layer_1" x="0px" y="0px" width="100px" height="100px" viewBox="0 0 100 100" enable-background="new 0 0 100 100" xml:space="preserve">
<path d="M47.303,27.491h5.4c2.321,0,2.321-3.6,0-3.6h-5.4C44.981,23.891,44.981,27.491,47.303,27.491z M87.367,53.479  c-0.756-0.577-0.577-1.341-0.824-2.142c-0.252-0.82-0.915-1.446-1.712-1.737c-1.84-0.672-3.746,0.837-3.508,2.783  c0.097,0.79,0.506,1.537,1.174,1.984c0.523,0.35,1.035,0.335,1.609,0.489l0,0h0.001h0.001c3.214,0.736,5.478,4.238,4.659,7.478  c-0.045,0.224-0.108,0.446-0.191,0.676c-0.007,0.015-0.012,0.031-0.016,0.047c-1.068,3.949-2.626,7.81-4.706,11.337  c-0.662,1.346-2.626,1.574-3.306,0.075c-0.362-0.797,0.037-1.343,0.253-2.092c0.23-0.798,0.041-1.65-0.441-2.317  c-0.91-1.256-2.735-1.547-3.909-0.47c-1.115,1.023-1.207,2.886-0.117,3.957c0.246,0.165,0.48,0.348,0.693,0.555  c2.348,2.08,2.717,5.772,0.851,8.337c-0.105,0.16-1.968,2.009-2.415,2.416C68.3,91.4,58.882,95.221,49.136,94.99  c-9.772-0.232-19.015-4.526-25.906-11.386c-0.109-0.078-0.994-1-1.099-1.157c-1.854-2.539-1.507-6.19,0.834-8.331  c0.022-0.022,0.49-0.427,0.717-0.578c1.199-1.132,0.928-3.252-0.397-4.166c-1.273-0.878-2.96-0.403-3.759,0.867  c-0.449,0.714-0.556,1.597-0.239,2.384c0.285,0.708,0.5,1.336,0.059,2.048c-0.808,1.306-2.577,0.982-3.197-0.278  c-2.108-3.496-3.643-7.406-4.707-11.339c-0.003-0.017-0.009-0.034-0.016-0.05c-0.083-0.227-0.145-0.447-0.189-0.67  c-0.821-3.283,1.485-6.755,4.726-7.496c0.225-0.071,0.457-0.087,0.689-0.113c1.514-0.517,2.574-2.292,1.816-3.818  c-0.678-1.366-2.352-1.806-3.676-1.127c-0.646,0.331-1.152,0.908-1.35,1.612c-0.184,0.655-0.136,1.428-0.64,1.952  c-0.554,0.577-1.486,0.641-2.16,0.251c-0.846-0.49-1.029-1.489-0.902-2.391c-0.194-7.921,1.475-15.881,4.997-22.991  c1.607-3.244,3.595-6.271,5.926-9.04c2.138-2.539,6.402-2.4,8.734-0.277c0.204,0.158,0.365,0.36,0.531,0.554  c1.472,1.296,3.979,0.42,4.396-1.468c0.401-1.819-1.303-3.537-3.131-3.227c-0.728,0.124-1.268,0.721-2.026,0.721  c-0.558,0-1.13-0.29-1.458-0.743c-0.602-0.825-0.353-1.965,0.45-2.549c0.001,0,0.001-0.001,0.002-0.001  C34.501,7.599,42.165,5,50.003,5s15.501,2.599,21.84,7.183c0.84,0.535,1.026,1.761,0.452,2.55c-1.13,1.557-2.391,0.095-3.717-0.005  c-1.891-0.142-3.462,1.759-2.805,3.573c0.621,1.713,2.932,2.325,4.312,1.139c0.185-0.214,0.367-0.415,0.584-0.597  c2.335-2.126,6.569-2.155,8.689,0.349c0.173,0.164,0.31,0.363,0.465,0.543h-0.001c3.694,4.131,6.316,9.574,8.024,14.799  c1.821,5.573,2.661,11.52,2.403,17.381C90.249,53.391,88.64,54.451,87.367,53.479z M80.045,47.169  c1.845-1.461,4.325-1.74,6.501-0.748c-0.681-8.945-3.971-17.29-9.466-24.354c-0.122-0.141-0.239-0.287-0.355-0.432  c-0.975-0.98-2.609-1.025-3.658-0.102c-0.08,0.093-0.159,0.188-0.242,0.278c-0.118,0.12-0.228,0.224-0.334,0.311  c-2.82,2.485-7.372,1.825-9.443-1.288c-1.915-2.878-1.007-6.801,1.871-8.659C55.57,7.47,44.436,7.469,35.086,12.174  c2.932,1.899,3.806,5.914,1.775,8.799c-1.056,1.499-2.758,2.475-4.579,2.663c-0.957,0.099-1.935-0.022-2.837-0.358  c-0.546-0.203-1.62-0.622-1.924-1.154c-0.165-0.142-0.286-0.318-0.439-0.471c-1.113-0.932-2.717-1.109-3.808-0.005  c-0.002,0.002-0.015,0.015-0.02,0.02c-0.007,0.008-0.012,0.018-0.019,0.026c-5.703,7.103-9.087,15.648-9.776,24.744  c3.454-1.527,7.755,0.328,8.659,4.083c0.848,3.524-1.655,7.617-5.413,7.85c-1.331,0.342-2.207,1.675-1.98,3.025  c0,0.002,0.001,0.003,0.001,0.005l0.04,0.156c0.035,0.138,0.073,0.275,0.113,0.412c0.623,1.958,1.195,3.9,1.996,5.799  c2.238-2.863,6.539-3.278,9.199-0.747c2.592,2.466,2.62,6.812-0.032,9.246c-0.01,0.01-0.022,0.019-0.032,0.029  c-0.003,0.003-0.007,0.006-0.01,0.009c-0.192,0.183-0.393,0.326-0.61,0.476c-0.993,0.914-1.137,2.458-0.353,3.537  C31.539,87.14,40.511,91.4,50.003,91.4c9.499,0,18.478-4.267,24.982-11.101c0.767-1.074,0.62-2.612-0.371-3.523  c-0.211-0.146-0.415-0.292-0.602-0.469c-0.006-0.005-0.012-0.01-0.018-0.015c-0.003-0.003-0.009-0.007-0.012-0.011  c-2.718-2.474-2.638-6.931,0.075-9.38c2.672-2.41,6.88-1.944,9.071,0.868c0.878-2.08,1.564-4.214,2.157-6.391  c0.217-1.355-0.669-2.691-2.011-3.02c-0.309-0.043-0.76-0.119-0.858-0.149C77.543,56.927,76.047,50.337,80.045,47.169  C81.89,45.707,78.171,48.654,80.045,47.169z M74.73,41.616c-0.442,2.708-1.863,5.207-4.004,6.98c0,0-0.504,0.397-0.546,0.427  c-2.566,2.155-3.48,5.804-2.22,8.902c0,0,1.159,3.586,1.227,3.931c0.262,1.33,0.421,2.687,0.368,4.041  c-0.263,6.769-3.276,10.812-4.371,12.156c-5.989,7.352-16.703,9.334-24.923,4.615c-8.411-4.829-12.045-15.472-8.348-24.444  l0.134-0.304c1.256-3.099,0.342-6.747-2.225-8.899c-0.038-0.028-0.694-0.565-0.703-0.577c-2.058-1.786-3.414-4.206-3.842-6.825  c-4.577-2.4-2.832-9.614,2.342-9.614h0.582c1.465-1.567,3.355-2.704,5.409-3.245c2.482-0.77,4.477-2.654,5.268-5.149  c0-0.001,0.001-0.002,0.001-0.004c0.046-0.208,0.098-0.404,0.157-0.605c0.011-0.056,0.031-0.125,0.046-0.182  c0-0.002,0.001-0.003,0.001-0.005c1.341-4.982,6.387-8.307,11.437-8.083c4.595,0.203,9.484,3.558,10.447,8.268  c0.06,0.203,0.113,0.403,0.159,0.613c0,0.002,0.001,0.004,0.002,0.005c0.797,2.484,2.785,4.38,5.266,5.141  c2.054,0.542,3.944,1.678,5.409,3.245h0.582C77.572,32.004,79.3,39.207,74.73,41.616z M72.387,35.605H58.228  c-1.902,0-1.887,2.993,0,2.993h14.159c0.807,0,1.463-0.657,1.463-1.463C73.85,36.261,73.194,35.605,72.387,35.605z M42.311,24.694  c-1.068,3.419-3.715,6.115-7.114,7.311h6.581c2.382,0,4.502,1.737,4.966,4.074c0.476,2.393-0.856,4.876-3.132,5.768  c-1.378,4.825-8.342,5.066-10.055,0.35h-4.439c0.456,1.395,1.295,2.66,2.447,3.617c0.148,0.108,0.293,0.219,0.428,0.333  c0.004,0.003,0.009,0.007,0.013,0.01l0.011,0.009c3.862,3.004,5.181,8.641,3.363,13.115c-0.043,0.124-0.106,0.251-0.162,0.369  c-1.15,2.791-1.444,5.841-0.939,8.765l3.369-5.836c0.679-1.178,2.438-1.178,3.117,0l4.888,8.467h8.739l4.888-8.467  c0.68-1.178,2.438-1.178,3.118,0l3.333,5.773c0.488-2.912,0.185-5.955-0.97-8.757c0-0.001,0.004-0.003,0.004-0.004  c-0.06-0.126-0.123-0.252-0.167-0.373c-1.806-4.439-0.457-10.086,3.386-13.051c0,0,0.383-0.305,0.495-0.386  c1.121-0.933,1.952-2.19,2.406-3.584h-4.44c-1.714,4.715-8.676,4.475-10.055-0.349c-2.349-0.917-3.669-3.485-3.087-5.932  c0.537-2.258,2.595-3.912,4.922-3.912h6.58c-3.773-1.327-6.177-4.323-7.312-8.053h0.001c-0.017-0.057-0.033-0.12-0.045-0.179  c-1.02-3.224-4.068-5.452-7.449-5.452c-3.382,0-6.431,2.23-7.45,5.456c-0.045,0.212-0.103,0.424-0.164,0.633  c-0.013,0.058-0.028,0.115-0.044,0.172C42.334,24.622,42.322,24.663,42.311,24.694C41.243,28.112,42.322,24.663,42.311,24.694z   M60.841,67.08l-2.29,3.967h4.581L60.841,67.08z M39.207,67.08l-2.29,3.967h4.58L39.207,67.08z M27.618,38.597h14.16  c1.902,0,1.887-2.993,0-2.993h-14.16C25.716,35.605,25.731,38.597,27.618,38.597z M63.227,74.647H36.78  c2.936,4.347,7.973,7.034,13.223,7.034C55.252,81.68,60.291,78.993,63.227,74.647z M57.33,47.59c1.79,0.9,3.08,2.63,3.39,4.6  c0.17,1.04,0.08,2.18-1.02,2.65c-0.9,0.38-1.97-0.06-2.36-0.96c-0.21-0.51-0.11-1.09-0.31-1.61c-0.17-0.43-0.45-0.82-0.8-1.11  c-0.74-0.61-1.76-0.8-2.66-0.46c-0.94,0.35-1.66,1.23-1.76,2.24c-0.09,0.98-0.46,1.88-1.56,2.03c-1.07,0.14-2.05-0.71-2.05-1.79  c0-0.94-0.54-1.81-1.35-2.28c-0.9-0.53-2.04-0.48-2.89,0.12c-0.88,0.62-1.04,1.42-1.17,2.41c-0.15,1.06-1.23,1.77-2.27,1.49  c-1.06-0.29-1.38-1.29-1.29-2.28c0.18-2.16,1.54-4.09,3.47-5.05c0.32-0.18,0.68-0.31,1.03-0.42c0.12-0.04,0.25-0.07,0.37-0.08  c2.12-0.48,4.38,0.17,5.9,1.72C51.9,46.88,54.91,46.38,57.33,47.59z"/>
</svg>