<svg xmlns="http://www.w3.org/2000/svg" xmlns:xlink="http://www.w3.org/1999/xlink" version="1.1" x="0px" y="0px" width="100px" height="100px" viewBox="0 0 100 100" enable-background="new 0 0 100 100" xml:space="preserve">
<g id="Captions">
</g>
<g id="Your_Icon">
	<path d="M89.893,53.785c-0.005,0.001-0.013,0.001-0.02,0H47.088c-0.69,0-1.25-0.56-1.25-1.25V5.859   c0-0.516,0.316-0.979,0.797-1.165c0.479-0.188,1.025-0.061,1.375,0.32L90.674,51.56c0.286,0.229,0.469,0.581,0.469,0.976   C91.143,53.226,90.583,53.785,89.893,53.785z M48.338,51.285h38.693L48.338,9.073V51.285z"/>
	<path d="M37.047,53.785h-26.92c-0.522,0-0.989-0.324-1.172-0.813c-0.182-0.489-0.041-1.04,0.354-1.382l26.92-23.281   c0.371-0.32,0.895-0.395,1.337-0.191c0.445,0.203,0.73,0.647,0.73,1.137v23.281C38.297,53.226,37.737,53.785,37.047,53.785z    M13.483,51.285h22.313V31.987L13.483,51.285z"/>
	<path d="M79.965,87.25H20.033c-0.36,0-0.703-0.155-0.94-0.426c-6.588-7.518-10.216-17.13-10.216-27.068c0-0.69,0.56-1.25,1.25-1.25   h79.746c0.69,0,1.25,0.56,1.25,1.25c0,9.935-3.629,19.547-10.218,27.068C80.668,87.095,80.325,87.25,79.965,87.25z M20.605,84.75   h58.787c5.685-6.68,8.926-15.049,9.21-23.744H11.397C11.682,69.705,14.922,78.073,20.605,84.75z"/>
	<path d="M62.617,80.184c-4.03,0-7.309-3.277-7.309-7.307s3.278-7.307,7.309-7.307c4.026,0,7.303,3.277,7.303,7.307   S66.644,80.184,62.617,80.184z M62.617,68.07c-2.651,0-4.809,2.156-4.809,4.807s2.157,4.807,4.809,4.807   c2.648,0,4.803-2.156,4.803-4.807S65.266,68.07,62.617,68.07z"/>
	<path d="M35.758,80.184c-4.027,0-7.305-3.277-7.305-7.307s3.277-7.307,7.305-7.307c4.029,0,7.307,3.277,7.307,7.307   S39.787,80.184,35.758,80.184z M35.758,68.07c-2.649,0-4.805,2.156-4.805,4.807s2.155,4.807,4.805,4.807   c2.65,0,4.807-2.156,4.807-4.807S38.408,68.07,35.758,68.07z"/>
</g>
</svg>