<svg xmlns="http://www.w3.org/2000/svg" xmlns:xlink="http://www.w3.org/1999/xlink" version="1.1" id="Layer_1" x="0px" y="0px" width="100px" height="100px" viewBox="0 0 100 100" enable-background="new 0 0 100 100" xml:space="preserve">
<path d="M21.657,47.128c-0.398-0.735-1.178-1.083-1.911-0.924c-2.863,0.443-5.424,2.246-6.962,4.873  c-0.846,1.445-1.358,3.104-1.48,4.807c-0.099,1.391-0.167,3.49,1.444,3.885l14.423,4.097c1.519,0.431,2.805-1.383,2.017-2.84  L21.657,47.128z M14.882,56.379c0.123-2.756,1.878-5.233,4.324-6.087l4.684,8.645L14.882,56.379z M14.87,63.418  c0.967,0.249,1.562,1.291,1.33,2.329l-2.025,9.057c-0.543,2.427-4.042,1.52-3.501-0.902l2.025-9.057  C12.932,63.808,13.902,63.164,14.87,63.418C15.837,63.667,13.902,63.164,14.87,63.418z M88.635,58.146  c0.714-5.699-3.077-11.121-8.382-11.941c-0.732-0.156-1.513,0.19-1.91,0.924l-7.53,13.9c-0.79,1.456,0.499,3.269,2.016,2.839  l14.4-4.091C87.969,59.605,88.533,58.955,88.635,58.146C88.988,55.327,88.533,58.955,88.635,58.146z M76.11,58.937l4.684-8.645  c2.445,0.853,4.201,3.331,4.324,6.087L76.11,58.937z M68.516,56.451c-0.096-1.155-1.162-1.983-2.218-1.708L50,59.053l-16.299-4.311  c-1.446-0.381-2.701,1.287-2.048,2.724l3.451,7.584c0.228,0.502,0.685,0.897,1.192,1.029l13.12,3.429  C49.611,69.56,49.8,69.569,50,69.55c0.2,0.019,0.389,0.01,0.585-0.04l13.121-3.429c0.508-0.132,0.962-0.528,1.191-1.029l3.45-7.584  C68.487,57.158,68.544,56.792,68.516,56.451z M62.033,62.54L50,65.685L37.968,62.54l-1.391-3.056l12.992,3.436  c0.28,0.074,0.582,0.073,0.861,0l12.992-3.436L62.033,62.54z M90.786,45.178c2.584-0.493,4.441-3.11,4.191-5.915  c-0.248-2.774-2.494-4.959-5.088-4.959h-4.31c0,0-7.402-15.366-7.421-15.39c-2.001-3.089-5.339-4.954-8.844-4.954H51.8V6.869  c0-2.492-3.6-2.492-3.6,0v7.091H30.686c-3.502,0-6.847,1.865-8.845,4.955c-0.018,0.023-7.419,15.39-7.419,15.39h-4.31  c-2.504,0-4.702,2.038-5.06,4.7c-0.388,2.887,1.488,5.663,4.163,6.174l-3.384,7.135C5.279,53.737,5,55.232,5,56.755v17.079  c0,3.488,1.509,6.814,4.05,8.978v6.014C9.05,92.23,11.63,95,14.801,95h10.431c3.171,0,5.751-2.77,5.751-6.174v-3.545h38.034v3.545  c0,3.404,2.58,6.174,5.751,6.174h10.432c3.171,0,5.751-2.77,5.751-6.174v-6.015c2.541-2.167,4.05-5.488,4.05-8.978V56.755  c0-1.521-0.279-3.015-0.861-4.517L90.786,45.178z M22.456,25.987h55.093l6.7,13.99H15.767L22.456,25.987z M89.888,38.168  c1.107,0,1.858,1.305,1.343,2.363c-0.529,1.086-1.983,1.15-2.607,0.132l-1.195-2.495H89.888z M26.647,19.147  c1.204-0.853,2.594-1.323,4.039-1.323h38.628c2.358,0,4.607,1.264,5.934,3.359l0.45,0.939H24.304l0.453-0.948  C25.258,20.381,25.908,19.685,26.647,19.147C27.042,18.866,26.272,19.42,26.647,19.147z M10.112,41.404  c-1.951,0-1.947-3.236,0-3.236h2.46l-1.194,2.495C11.093,41.127,10.626,41.404,10.112,41.404z M27.383,88.826  c0,1.274-0.965,2.309-2.151,2.309H14.801c-1.186,0-2.151-1.036-2.151-2.309v-4.014c0.98,0.308,1.989,0.469,3.015,0.469h11.718  V88.826z M69.609,75.746c-0.781,1.791-0.777,3.882,0.008,5.671h-39.27c0.78-1.791,0.777-3.882-0.009-5.671H69.609z M75.367,75.746  c3.346,0.143,3.236,5.664-0.104,5.664c-3.34,0-3.45-5.521-0.104-5.664H75.367z M24.581,81.417c-1.779-0.083-2.992-2.061-2.347-3.846  l0.272-0.57c1.077-1.701,3.504-1.609,4.47,0.159c0.99,1.813-0.22,4.166-2.169,4.257H24.581z M85.199,91.136H74.768  c-1.186,0-2.151-1.036-2.151-2.309v-3.545h11.718c1.022,0,2.028-0.161,3.015-0.471v4.016C87.35,90.1,86.385,91.136,85.199,91.136z   M91.4,73.834c0,4.14-3.208,7.583-7.065,7.583h-0.721l-4.001-8.477c-0.307-0.649-0.927-1.058-1.605-1.058h-2.538  c-0.139-0.015-0.278-0.015-0.416,0H21.992c-0.678,0-1.298,0.408-1.605,1.058l-4.001,8.477h-0.721c-3.857,0-7.065-3.442-7.065-7.583  V56.755c0-1.011,0.187-2.007,0.525-2.884l4.795-10.03h72.179l4.514,9.426l0.231,0.528c0.368,0.953,0.555,1.949,0.555,2.959V73.834z   M89.325,73.902c0.542,2.422-2.958,3.329-3.5,0.902L83.8,65.747c-0.542-2.422,2.959-3.326,3.5-0.902L89.325,73.902z"/>
</svg>