<?xml version="1.0" encoding="utf-8"?>
<!-- Generator: Adobe Illustrator 17.0.0, SVG Export Plug-In . SVG Version: 6.00 Build 0)  -->
<!DOCTYPE svg PUBLIC "-//W3C//DTD SVG 1.1//EN" "http://www.w3.org/Graphics/SVG/1.1/DTD/svg11.dtd">
<svg version="1.1" id="Layer_1" xmlns="http://www.w3.org/2000/svg" xmlns:xlink="http://www.w3.org/1999/xlink" x="0px" y="0px"
	 width="460.76px" height="38.375px" viewBox="0 0 460.76 38.375" enable-background="new 0 0 460.76 38.375" xml:space="preserve">
<g id="right">
	<g>
		<path fill="#E55346" d="M188.028,0c-4.223,0-7.649,3.424-7.649,7.649c0,4.23,3.426,7.658,7.649,7.658
			c4.227,0,7.653-3.428,7.653-7.658C195.681,3.424,192.255,0,188.028,0z"/>
		<path fill="#2BACE2" d="M188.028,23.074c-4.223,0-7.649,3.426-7.649,7.655c0,4.22,3.426,7.646,7.649,7.646
			c4.227,0,7.653-3.426,7.653-7.646C195.681,26.5,192.255,23.074,188.028,23.074z"/>
		<path fill="#2BACE2" d="M210.653,23.074c-4.227,0-7.653,3.426-7.653,7.655c0,4.22,3.426,7.646,7.653,7.646
			c4.228,0,7.651-3.426,7.651-7.646C218.304,26.5,214.881,23.074,210.653,23.074z"/>
		<path fill="#E55346" d="M210.653,0C206.426,0,203,3.424,203,7.649c0,4.23,3.426,7.658,7.653,7.658
			c4.228,0,7.651-3.428,7.651-7.658C218.304,3.424,214.881,0,210.653,0z"/>
		<path fill="#2BACE2" d="M255.901,23.074c-4.227,0-7.654,3.426-7.654,7.655c0,4.22,3.427,7.646,7.654,7.646
			c4.223,0,7.648-3.426,7.648-7.646C263.549,26.5,260.124,23.074,255.901,23.074z"/>
		<path fill="#E55346" d="M233.274,0c-4.223,0-7.644,3.424-7.644,7.649c0,4.23,3.422,7.658,7.644,7.658
			c4.227,0,7.654-3.428,7.654-7.658C240.928,3.424,237.501,0,233.274,0z"/>
		<path fill="#2BACE2" d="M233.274,23.074c-4.223,0-7.644,3.426-7.644,7.655c0,4.22,3.422,7.646,7.644,7.646
			c4.227,0,7.654-3.426,7.654-7.646C240.928,26.5,237.501,23.074,233.274,23.074z"/>
	</g>
	<g>
		<path fill="#2BACE2" d="M278.028,23.074c-4.223,0-7.649,3.426-7.649,7.655c0,4.22,3.426,7.646,7.649,7.646
			c4.227,0,7.653-3.426,7.653-7.646C285.681,26.5,282.255,23.074,278.028,23.074z"/>
		<path fill="#2BACE2" d="M300.653,23.074c-4.227,0-7.653,3.426-7.653,7.655c0,4.22,3.426,7.646,7.653,7.646
			c4.228,0,7.651-3.426,7.651-7.646C308.304,26.5,304.881,23.074,300.653,23.074z"/>
		<path fill="#2BACE2" d="M345.901,23.074c-4.227,0-7.654,3.426-7.654,7.655c0,4.22,3.427,7.646,7.654,7.646
			c4.223,0,7.648-3.426,7.648-7.646C353.549,26.5,350.124,23.074,345.901,23.074z"/>
		<path fill="#2BACE2" d="M323.274,23.074c-4.223,0-7.644,3.426-7.644,7.655c0,4.22,3.422,7.646,7.644,7.646
			c4.227,0,7.654-3.426,7.654-7.646C330.928,26.5,327.501,23.074,323.274,23.074z"/>
	</g>
</g>
<g id="left">
	<g>
		<path fill="#454545" d="M7.649,0C3.426,0,0,3.424,0,7.649c0,4.23,3.426,7.658,7.649,7.658c4.227,0,7.653-3.428,7.653-7.658
			C15.302,3.424,11.876,0,7.649,0z"/>
		<path fill="#454545" d="M7.649,23.074C3.426,23.074,0,26.5,0,30.729c0,4.22,3.426,7.646,7.649,7.646
			c4.227,0,7.653-3.426,7.653-7.646C15.302,26.5,11.876,23.074,7.649,23.074z"/>
		<path fill="#454545" d="M30.274,23.074c-4.227,0-7.653,3.426-7.653,7.655c0,4.22,3.426,7.646,7.653,7.646
			c4.228,0,7.651-3.426,7.651-7.646C37.925,26.5,34.502,23.074,30.274,23.074z"/>
		<path fill="#454545" d="M30.274,0c-4.227,0-7.653,3.424-7.653,7.649c0,4.23,3.426,7.658,7.653,7.658
			c4.228,0,7.651-3.428,7.651-7.658C37.925,3.424,34.502,0,30.274,0z"/>
		<path fill="#454545" d="M75.522,23.074c-4.227,0-7.654,3.426-7.654,7.655c0,4.22,3.427,7.646,7.654,7.646
			c4.223,0,7.648-3.426,7.648-7.646C83.17,26.5,79.745,23.074,75.522,23.074z"/>
		<path fill="#454545" d="M75.522,0c-4.227,0-7.654,3.424-7.654,7.649c0,4.23,3.427,7.658,7.654,7.658
			c4.223,0,7.648-3.428,7.648-7.658C83.17,3.424,79.745,0,75.522,0z"/>
		<path fill="#454545" d="M52.895,0c-4.223,0-7.644,3.424-7.644,7.649c0,4.23,3.422,7.658,7.644,7.658
			c4.227,0,7.654-3.428,7.654-7.658C60.549,3.424,57.122,0,52.895,0z"/>
		<path fill="#454545" d="M52.895,23.074c-4.223,0-7.644,3.426-7.644,7.655c0,4.22,3.422,7.646,7.644,7.646
			c4.227,0,7.654-3.426,7.654-7.646C60.549,26.5,57.122,23.074,52.895,23.074z"/>
	</g>
	<g>
		<path fill="#454545" d="M97.649,0C93.426,0,90,3.424,90,7.649c0,4.23,3.426,7.658,7.649,7.658c4.227,0,7.653-3.428,7.653-7.658
			C105.302,3.424,101.876,0,97.649,0z"/>
		<path fill="#454545" d="M97.649,23.074C93.426,23.074,90,26.5,90,30.729c0,4.22,3.426,7.646,7.649,7.646
			c4.227,0,7.653-3.426,7.653-7.646C105.302,26.5,101.876,23.074,97.649,23.074z"/>
		<path fill="#2BACE2" d="M120.274,23.074c-4.227,0-7.653,3.426-7.653,7.655c0,4.22,3.426,7.646,7.653,7.646
			c4.228,0,7.651-3.426,7.651-7.646C127.925,26.5,124.502,23.074,120.274,23.074z"/>
		<path fill="#E55346" d="M120.274,0c-4.227,0-7.653,3.424-7.653,7.649c0,4.23,3.426,7.658,7.653,7.658
			c4.228,0,7.651-3.428,7.651-7.658C127.925,3.424,124.502,0,120.274,0z"/>
		<path fill="#2BACE2" d="M165.522,23.074c-4.227,0-7.654,3.426-7.654,7.655c0,4.22,3.427,7.646,7.654,7.646
			c4.223,0,7.648-3.426,7.648-7.646C173.17,26.5,169.745,23.074,165.522,23.074z"/>
		<path fill="#E55346" d="M165.522,0c-4.227,0-7.654,3.424-7.654,7.649c0,4.23,3.427,7.658,7.654,7.658
			c4.223,0,7.648-3.428,7.648-7.658C173.17,3.424,169.745,0,165.522,0z"/>
		<path fill="#E55346" d="M142.895,0c-4.223,0-7.644,3.424-7.644,7.649c0,4.23,3.422,7.658,7.644,7.658
			c4.227,0,7.654-3.428,7.654-7.658C150.549,3.424,147.122,0,142.895,0z"/>
		<path fill="#2BACE2" d="M142.895,23.074c-4.223,0-7.644,3.426-7.644,7.655c0,4.22,3.422,7.646,7.644,7.646
			c4.227,0,7.654-3.426,7.654-7.646C150.549,26.5,147.122,23.074,142.895,23.074z"/>
	</g>
</g>
</svg>
