<?xml version="1.0" encoding="utf-8"?>
<!-- Generator: Adobe Illustrator 17.0.0, SVG Export Plug-In . SVG Version: 6.00 Build 0)  -->
<!DOCTYPE svg PUBLIC "-//W3C//DTD SVG 1.1//EN" "http://www.w3.org/Graphics/SVG/1.1/DTD/svg11.dtd">
<svg version="1.1" id="Layer_1" xmlns="http://www.w3.org/2000/svg" xmlns:xlink="http://www.w3.org/1999/xlink" x="0px" y="0px"
	 width="416.5px" height="82.633px" viewBox="0 0 416.5 82.633" enable-background="new 0 0 416.5 82.633" xml:space="preserve">
<rect x="96.5" y="11.738" fill="none" width="386" height="97"/>
<text transform="matrix(1 0 0 1 96.5 47.3528)" fill="#E55346" font-family="'Montserrat-Regular'" font-size="48">MichaelWeb</text>
<g display="none">
	<circle display="inline" fill="#010101" cx="23.327" cy="-10.926" r="5.466"/>
	<circle display="inline" fill="#010101" cx="23.327" cy="13.944" r="5.466"/>
	<circle display="inline" fill="#010101" cx="23.327" cy="63.682" r="5.467"/>
	<circle display="inline" fill="#010101" cx="23.327" cy="38.811" r="5.466"/>
	<path display="inline" fill="#010101" d="M23.327,83.084c-3.019,0-5.466,2.445-5.466,5.464c0,3.023,2.447,5.471,5.466,5.471
		c3.016,0,5.469-2.447,5.469-5.471C28.795,85.529,26.343,83.084,23.327,83.084z"/>
	<circle display="inline" fill="#010101" cx="-5.52" cy="38.811" r="5.466"/>
	<circle display="inline" fill="#010101" cx="-5.52" cy="13.944" r="5.466"/>
	<circle display="inline" fill="#010101" cx="-5.52" cy="-10.926" r="5.466"/>
	<path display="inline" fill="#010101" d="M-5.52,83.084c-3.019,0-5.464,2.445-5.464,5.464c0,3.023,2.445,5.471,5.464,5.471
		s5.466-2.447,5.466-5.471C-0.053,85.529-2.501,83.084-5.52,83.084z"/>
	<circle display="inline" fill="#010101" cx="-5.52" cy="63.682" r="5.467"/>
	<path display="inline" fill="#010101" d="M81.015,83.084c-3.016,0-5.466,2.445-5.466,5.464c0,3.023,2.45,5.471,5.466,5.471
		c3.021,0,5.469-2.447,5.469-5.471C86.483,85.529,84.036,83.084,81.015,83.084z"/>
	<circle display="inline" fill="#010101" cx="81.015" cy="63.682" r="5.467"/>
	<circle display="inline" fill="#010101" cx="81.015" cy="38.811" r="5.466"/>
	<circle display="inline" fill="#010101" cx="81.015" cy="13.944" r="5.466"/>
	<circle display="inline" fill="#010101" cx="81.015" cy="-10.926" r="5.466"/>
	<path display="inline" fill="#010101" d="M52.173,58.214c-3.019,0-5.468,2.448-5.468,5.466c0,3.019,2.45,5.469,5.468,5.469
		c3.017,0,5.466-2.45,5.466-5.469C57.639,60.662,55.19,58.214,52.173,58.214z"/>
	<path display="inline" fill="#010101" d="M52.173,83.084c-3.019,0-5.468,2.445-5.468,5.464c0,3.023,2.45,5.471,5.468,5.471
		c3.017,0,5.466-2.447,5.466-5.471C57.639,85.529,55.19,83.084,52.173,83.084z"/>
	<path display="inline" fill="#010101" d="M52.173,33.345c-3.019,0-5.468,2.447-5.468,5.466c0,3.021,2.45,5.466,5.468,5.466
		c3.017,0,5.466-2.445,5.466-5.466C57.639,35.792,55.19,33.345,52.173,33.345z"/>
	<path display="inline" fill="#010101" d="M52.173,8.478c-3.019,0-5.468,2.445-5.468,5.466c0,3.019,2.45,5.466,5.468,5.466
		c3.017,0,5.466-2.447,5.466-5.466C57.639,10.923,55.19,8.478,52.173,8.478z"/>
	<path display="inline" fill="#010101" d="M52.173-16.392c-3.019,0-5.468,2.447-5.468,5.466c0,3.019,2.45,5.466,5.468,5.466
		c3.017,0,5.466-2.447,5.466-5.466C57.639-13.945,55.19-16.392,52.173-16.392z"/>
</g>
<g>
	<g>
		<path fill="#2AACE3" d="M10.12,0C5.897,0,2.471,3.424,2.471,7.649c0,4.23,3.426,7.658,7.649,7.658
			c4.227,0,7.653-3.428,7.653-7.658C17.773,3.424,14.347,0,10.12,0z"/>
		<path fill="#2AACE3" d="M10.12,23.074c-4.223,0-7.649,3.426-7.649,7.655c0,4.22,3.426,7.646,7.649,7.646
			c4.227,0,7.653-3.426,7.653-7.646C17.773,26.5,14.347,23.074,10.12,23.074z"/>
		<path fill="#2AACE3" d="M32.745,23.074c-4.227,0-7.653,3.426-7.653,7.655c0,4.22,3.426,7.646,7.653,7.646
			c4.228,0,7.651-3.426,7.651-7.646C40.396,26.5,36.973,23.074,32.745,23.074z"/>
		<path fill="#2AACE3" d="M32.745,0c-4.227,0-7.653,3.424-7.653,7.649c0,4.23,3.426,7.658,7.653,7.658
			c4.228,0,7.651-3.428,7.651-7.658C40.396,3.424,36.973,0,32.745,0z"/>
		<path fill="#2AACE3" d="M77.993,23.074c-4.227,0-7.654,3.426-7.654,7.655c0,4.22,3.427,7.646,7.654,7.646
			c4.223,0,7.648-3.426,7.648-7.646C85.641,26.5,82.216,23.074,77.993,23.074z"/>
		<path fill="#2AACE3" d="M77.993,0c-4.227,0-7.654,3.424-7.654,7.649c0,4.23,3.427,7.658,7.654,7.658
			c4.223,0,7.648-3.428,7.648-7.658C85.641,3.424,82.216,0,77.993,0z"/>
		<path fill="#2AACE3" d="M55.366,0c-4.223,0-7.644,3.424-7.644,7.649c0,4.23,3.422,7.658,7.644,7.658
			c4.227,0,7.654-3.428,7.654-7.658C63.02,3.424,59.593,0,55.366,0z"/>
		<path fill="#2AACE3" d="M55.366,23.074c-4.223,0-7.644,3.426-7.644,7.655c0,4.22,3.422,7.646,7.644,7.646
			c4.227,0,7.654-3.426,7.654-7.646C63.02,26.5,59.593,23.074,55.366,23.074z"/>
	</g>
	<path fill="#2AACE3" d="M10.119,44.257c-4.223,0-7.649,3.424-7.649,7.649c0,4.23,3.426,7.658,7.649,7.658
		c4.227,0,7.653-3.428,7.653-7.658C17.773,47.681,14.347,44.257,10.119,44.257z"/>
	<path fill="#2AACE3" d="M10.119,67.332c-4.223,0-7.649,3.426-7.649,7.655c0,4.22,3.426,7.646,7.649,7.646
		c4.227,0,7.653-3.426,7.653-7.646C17.773,70.758,14.347,67.332,10.119,67.332z"/>
	<path fill="#2AACE3" d="M32.744,67.332c-4.227,0-7.653,3.426-7.653,7.655c0,4.22,3.426,7.646,7.653,7.646
		c4.228,0,7.651-3.426,7.651-7.646C40.395,70.758,36.973,67.332,32.744,67.332z"/>
	<path fill="#2AACE3" d="M32.744,44.257c-4.227,0-7.653,3.424-7.653,7.649c0,4.23,3.426,7.658,7.653,7.658
		c4.228,0,7.651-3.428,7.651-7.658C40.395,47.681,36.973,44.257,32.744,44.257z"/>
	<path fill="#2AACE3" d="M85.64,74.987c0-4.229-3.425-7.655-7.648-7.655c-4.227,0-7.654,3.426-7.654,7.655
		c0,4.22,3.427,7.646,7.654,7.646C82.215,82.633,85.64,79.208,85.64,74.987"/>
	<path fill="#2AACE3" d="M85.64,51.906c0-4.225-3.425-7.649-7.648-7.649c-4.227,0-7.654,3.424-7.654,7.649
		c0,4.23,3.427,7.658,7.654,7.658C82.215,59.564,85.64,56.136,85.64,51.906"/>
	<path fill="#2AACE3" d="M55.365,44.257c-4.223,0-7.644,3.424-7.644,7.649c0,4.23,3.422,7.658,7.644,7.658
		c4.227,0,7.654-3.428,7.654-7.658C63.019,47.681,59.592,44.257,55.365,44.257z"/>
	<path fill="#2AACE3" d="M55.365,67.332c-4.223,0-7.644,3.426-7.644,7.655c0,4.22,3.422,7.646,7.644,7.646
		c4.227,0,7.654-3.426,7.654-7.646C63.019,70.758,59.592,67.332,55.365,67.332z"/>
</g>
<text transform="matrix(1 0 0 1 210.25 74.9822)" fill="#CCCCCC" font-family="'Montserrat-Regular'" font-size="24">Not for Science</text>
</svg>
