<svg xmlns="http://www.w3.org/2000/svg" xmlns:xlink="http://www.w3.org/1999/xlink" version="1.1" id="Layer_1" x="0px" y="0px" width="100px" height="100px" viewBox="0 0 100 100" enable-background="new 0 0 100 100" xml:space="preserve">
<g>
	<path d="M42.731,68.43c-1.961,0-3.603,1.64-3.603,3.6s1.642,3.6,3.603,3.6s3.603-1.64,3.603-3.6S44.692,68.43,42.731,68.43z"/>
	<path d="M57.269,68.43c-1.962,0-3.603,1.64-3.603,3.6s1.642,3.6,3.603,3.6s3.603-1.64,3.603-3.6   C60.872,70.071,59.23,68.43,57.269,68.43z"/>
	<path d="M37.291,43.698c-0.511-1.474-2.688-2.277-4.093-2.406c-1.802-0.166-3.566,0.507-4.841,1.782   c-1.185,1.183-1.821,2.828-1.744,4.5c0.068,1.481,0.862,3.828,2.428,4.368l9.113,3.152c0.193,0.067,0.392,0.099,0.589,0.099   c0.006,0.001,0.014,0.001,0.018,0c1.321,0,2.208-1.44,1.605-2.619L37.291,43.698z M30.669,48.695   c-1.578-2.137,1.254-4.933,3.372-3.37l1.786,5.154L30.669,48.695z"/>
	<path d="M67.36,41.267c-1.558,0-4.08,0.775-4.652,2.432l-3.154,9.105c-0.482,1.388,0.895,2.774,2.292,2.29l9.113-3.152   c1.063-0.366,1.792-1.751,2.125-2.747c0.41-1.225,0.411-2.582-0.004-3.806C72.258,42.969,69.92,41.267,67.36,41.267z M69.33,48.696   l-5.158,1.783l1.785-5.153C68.076,43.766,70.912,46.551,69.33,48.696z"/>
	<path d="M92.051,59.273l-12.417-23.12l3.081-0.929c0.949-0.294,1.509-1.354,1.183-2.301l-1.148-3.365l3.266,3.599   c0.505,0.557,1.353,0.735,2.039,0.442c6.203-2.002,9.163-10.296,4.276-15.178L81.369,7.468c-4.944-4.941-13.36-1.851-15.268,4.452   l-0.095,0.314c-4.073-4.499-9.914-7.235-16.01-7.235c-6.128,0-11.996,2.767-16.069,7.31l-0.117-0.388   C31.904,5.609,23.495,2.52,18.544,7.469L7.588,18.417c-4.946,4.941-1.859,13.35,4.456,15.254l8.303,2.504L7.949,59.273   C3.875,66.868,4.03,76.331,8.37,83.78c3.917,6.723,11.061,11.221,18.922,11.221H72.71c7.86,0,15.005-4.498,18.922-11.22   C95.97,76.331,96.126,66.868,92.051,59.273z M69.551,12.961c1.133-3.745,6.227-5.988,9.271-2.948l10.963,10.953   c2.712,2.71,1.207,7.233-1.946,8.838l-8.253-9.095c-0.003-0.003-0.006-0.006-0.009-0.01l-0.006-0.006   c-1.282-1.413-3.653-0.013-3.04,1.79l3.353,9.833l-8.751,2.638c-3.971,1.201-7.508-2.356-6.311-6.317L69.551,12.961z M8.89,25.837   c-0.464-1.843-0.01-3.62,1.245-4.874l10.956-10.947c3.047-3.044,8.135-0.808,9.27,2.947l4.736,15.68   c1.197,3.963-2.352,7.508-6.32,6.315l-5.259-1.586c-0.019-0.006-0.038-0.012-0.058-0.017l-10.377-3.129   C11.022,29.602,9.415,27.921,8.89,25.837C8.427,23.993,9.415,27.921,8.89,25.837z M38.696,81.564h22.607   c-0.776,5.559-5.685,9.835-11.303,9.835C44.382,91.4,39.473,87.123,38.696,81.564z M31.825,77.965   c0.806-8.183,7.279-15.005,15.416-16.242c8.207-1.248,16.427,3.383,19.623,11.035c0.693,1.658,1.136,3.419,1.312,5.207H31.825z    M88.387,82.188c-3.506,5.855-9.221,9.212-15.678,9.212H59.738c2.854-2.434,4.793-5.908,5.206-9.835h8.719c2.323,0,2.323-3.6,0-3.6   h-1.874c-0.667-8.125-6.018-15.375-13.571-18.449c-7.699-3.133-16.735-1.514-22.887,4.059c-4.085,3.701-6.67,8.895-7.121,14.389   h-1.874c-2.323,0-2.323,3.6,0,3.6h8.719c0.413,3.927,2.352,7.401,5.206,9.835h-12.97c-6.654,0-12.533-3.784-15.831-9.471   c-3.697-6.375-3.819-14.463-0.336-20.954l12.742-23.738l3.87,1.167c3.028,0.914,6.39,0.237,8.67-1.999   c2.331-2.285,3.076-5.708,2.141-8.803l-3.356-11.109c3.387-4.821,8.824-7.876,14.759-7.892c5.937,0,11.378,2.994,14.8,7.802   l-3.378,11.196c-0.898,2.972-0.271,6.25,1.875,8.536c2.283,2.434,5.762,3.224,8.929,2.267l3.938-1.187l12.761,23.761   C92.437,67.611,92.249,75.74,88.387,82.188C84.88,88.042,92.249,75.74,88.387,82.188z"/>
</g>
</svg>