<svg xmlns="http://www.w3.org/2000/svg" xmlns:xlink="http://www.w3.org/1999/xlink" version="1.1" id="Layer_1" x="0px" y="0px" width="100px" height="100px" viewBox="0 0 100 100" enable-background="new 0 0 100 100" xml:space="preserve">
<path d="M89.1,40.2C87,20.4,70.2,5.1,50.1,5l0,0l0,0l0,0l0,0C28.4,5.1,10.8,22.6,10.8,44.2v0.1v29.4C7.4,74.9,5,78.1,5,81.9  c0,4.8,3.9,8.7,8.7,8.7c0.8,0,1.6-0.1,2.4-0.4c2.5,3,6.2,4.8,10.1,4.8s7.5-1.7,10-4.6c0.6,0.1,1.2,0.2,1.8,0.2  c4.8,0,8.7-3.9,8.7-8.7c0-4.5-3.4-8.2-7.8-8.6v-29c0-6.2,5-11.2,11.2-11.2l0,0c4.5,0,8.5,2.8,10.2,6.8c-4,0.8-7,4.3-7,8.5  c0,4.8,3.9,8.7,8.7,8.7c0.8,0,1.6-0.1,2.4-0.4c2.5,3,6.2,4.8,10.1,4.8s7.5-1.7,10-4.6c0.6,0.1,1.2,0.2,1.8,0.2  c4.8,0,8.7-3.9,8.7-8.7C95,44.6,92.5,41.4,89.1,40.2z M14.4,44.3c0-19.7,16-35.7,35.7-35.7c18,0,33.2,13.6,35.4,31.2  c-0.3,0-0.6,0.1-0.9,0.1c-1.2-1.4-2.7-2.6-4.4-3.4c-3.5-13.6-15.9-23.3-30-23.4h-0.1c-17.1,0-31,13.8-31.2,30.8c0,0.1,0,27.1,0,27.1  c-1,0.7-2,1.5-2.8,2.5c-0.6-0.2-1.2-0.3-1.7-0.3V44.5C14.4,44.4,14.4,44.4,14.4,44.3z M71.3,35.7c-3.4-8.6-11.7-14.3-21.1-14.4  c-0.1,0-0.1,0-0.2,0c-12.7,0-23,10.3-23,23l0,0v24.4c-0.3,0-0.6,0-0.8,0c-1.3,0-2.6,0.2-3.8,0.6V44.7c0-0.1,0-0.2,0-0.3  c0-15.2,12.3-27.5,27.5-27.6l0,0c11.8,0,22.3,7.7,26,18.6c-0.5-0.1-1-0.1-1.5-0.1C73.5,35.3,72.4,35.5,71.3,35.7z M43,81.9  c0,2.8-2.3,5.1-5.1,5.1c-0.6,0-1.2-0.1-1.8-0.3c-0.8-0.3-1.7,0-2.1,0.7c-1.8,2.6-4.7,4.1-7.8,4.1c-3.3,0-6.2-1.6-8-4.3  c-0.3-0.5-0.9-0.8-1.5-0.8c-0.3,0-0.5,0.1-0.8,0.2c-0.7,0.4-1.5,0.5-2.3,0.5c-2.8,0-5.1-2.3-5.1-5.1c0-2.8,2.3-5.1,5.1-5.1  c0.8,0,1.6,0.2,2.3,0.5c0.8,0.4,1.8,0.1,2.3-0.6c0.9-1.4,2-2.4,3.4-3.2l0,0c1.4-0.7,2.9-1.1,4.5-1.1c3.1,0,6,1.5,7.8,4.1  c0.5,0.7,1.4,1,2.1,0.7c0.6-0.2,1.2-0.3,1.8-0.3C40.8,76.8,43,79.1,43,81.9z M50,29.5c-0.1,0-0.1,0-0.2,0c-8,0.2-14.4,6.6-14.5,14.6  c0,0.1,0,28.2,0,28.2c-1.3-1.2-2.9-2.2-4.6-2.8V44.1C30.8,33.5,39.4,25,50,24.9l0,0c8,0,15.1,4.8,18,12.2c-1.3,0.8-2.6,1.8-3.6,3  c-0.1,0-0.1,0-0.2,0C62.4,33.9,56.6,29.5,50,29.5z M86.3,53.5c-0.6,0-1.2-0.1-1.8-0.3c-0.8-0.3-1.7,0-2.1,0.7  c-1.8,2.6-4.7,4.1-7.8,4.1c-3.3,0-6.2-1.6-8-4.3c-0.3-0.5-0.9-0.8-1.5-0.8c-0.3,0-0.5,0.1-0.8,0.2c-0.7,0.4-1.5,0.5-2.3,0.5  c-2.8,0-5.1-2.3-5.1-5.1s2.3-5.1,5.1-5.1c0.8,0,1.6,0.2,2.3,0.5c0.8,0.4,1.8,0.1,2.3-0.6c1.7-2.7,4.7-4.3,8-4.3c3.1,0,6,1.5,7.8,4.1  c0.5,0.7,1.4,1,2.1,0.7c0.6-0.2,1.2-0.3,1.8-0.3c2.8,0,5.1,2.3,5.1,5.1C91.4,51.2,89.1,53.5,86.3,53.5z"/>
</svg>