<svg xmlns="http://www.w3.org/2000/svg" xmlns:xlink="http://www.w3.org/1999/xlink" version="1.1" id="Layer_1" x="0px" y="0px" width="100px" height="100px" viewBox="0 0 100 100" enable-background="new 0 0 100 100" xml:space="preserve">
<path fill="#000000" d="M23.707,83.879c-1.632,0.239-3.775-1.673-4.836-2.734c-2.869-2.868-4.137-7.065-3.334-11.043  c0.293-1.449,1.01-4.159,3.084-3.281c1.952,0.827,0.627,2.913,0.4,4.327c-0.62,3.853,1.526,7.747,5.127,9.265  c0.434,0.184,0.232,0.099,0.004,0.002C25.788,81.116,25.478,83.62,23.707,83.879z M49.856,69.78  c0.329,2.901,0.082,5.859-0.699,8.671c-1.555,5.601-5.23,10.538-10.245,13.507c-8.7,5.15-20.272,3.623-27.398-3.53  c-6.987-7.014-8.557-18.299-3.718-26.94c0.01-0.02,0.01-0.03,0.02-0.04l18.122-31.339c0.496-0.742,1.355-1.117,2.223-0.771  c0.06,0.02,0.21,0.09,0.23,0.1c0.249,0.166,0.641,0.631,0.661,0.661l18.102,31.349C48.493,64.124,49.516,66.78,49.856,69.78z   M44.011,63.228l-16.53-28.626L11.312,62.598c0,0.01-0.01,0.03-0.02,0.05c-3.379,5.791-3.676,12.97-0.456,18.915  c3.26,6.019,9.812,9.902,16.655,9.902c6.498,0,12.754-3.508,16.149-9.045C47.175,76.654,47.327,69.125,44.011,63.228z M93.18,66.281  c0.11,0.176,0.193,0.31,0.266,0.426C93.37,66.552,93.295,66.396,93.18,66.281z M93.261,79.046c-2.18,3.584-6.216,5.863-10.413,5.863  c-4.307,0-8.438-2.399-10.575-6.137c-2.197-3.842-2.088-8.759,0.253-12.511c0-0.01,0.01-0.01,0.01-0.02l8.78-15.184  c0.445-0.667,1.24-1.091,2.053-0.821c0.128,0.05,0.255,0.103,0.38,0.16c0.232,0.155,0.641,0.641,0.661,0.671  c0,0,8.76,15.204,8.77,15.214C95.575,70.121,95.613,75.178,93.261,79.046z M90.086,68.113c-0.01-0.02-7.239-12.542-7.239-12.542  l-7.189,12.472c-0.01,0.01-0.02,0.01-0.02,0.02c-0.734,1.468-1.327,2.801-1.338,4.483c-0.009,1.488,0.381,2.968,1.096,4.271  c1.49,2.713,4.337,4.488,7.45,4.488C89.487,81.305,93.673,73.737,90.086,68.113z M81.893,74.871  c-0.423-0.181-1.543-1.607-1.324-2.731c0.223-1.141,0.349-2.384-1.082-2.762c-2.692-0.712-2.833,3.405-2.356,5.02  c0.475,1.609,2.531,4.528,4.567,3.923C83.35,77.829,83.359,75.553,81.893,74.871z M58.641,43.431  c0.226,0.096,0.516,0.218-0.002-0.001c-3.01-1.272-4.444-4.839-3.184-7.847c0.505-1.19-0.428-2.551-1.724-2.505  c-1.667,0.059-2.064,2.136-2.252,3.443c-0.481,3.334,0.839,6.726,3.456,8.848c0.999,0.81,2.681,2.063,3.978,1.223  C60.102,45.821,59.941,43.985,58.641,43.431z M52.89,53.301c-8.863-4.667-11.986-16.249-6.576-24.725L59.399,5.885  c0.674-1.18,2.449-1.18,3.124,0l13.136,22.751c1.742,2.712,2.683,5.946,2.683,9.279c0,2.981-0.776,5.94-2.245,8.534  C71.536,54.5,61.1,57.624,52.89,53.301z M72.581,45.31c2.843-4.452,2.861-10.345,0.004-14.802L60.971,10.389L49.407,30.448  c-2.864,4.501-2.925,10.36-0.046,14.865c2.511,3.929,6.942,6.375,11.61,6.375S70.071,49.241,72.581,45.31z"/>
</svg>