<svg xmlns="http://www.w3.org/2000/svg" xmlns:xlink="http://www.w3.org/1999/xlink" version="1.1" id="Layer_1" x="0px" y="0px" width="100px" height="100px" viewBox="0 0 100 100" enable-background="new 0 0 100 100" xml:space="preserve">
<g>
	<path fill="#000000" d="M33,39.8c-0.1-2-0.2-3.8-0.3-5.6c-1-13.3-4.2-21.8-10.5-28.6c-0.7-0.7-1.8-0.8-2.5-0.1   C12.8,11.8,9.1,20.1,7.2,33.3C6.7,36.8,6.3,40.9,6,45.8c-0.1,1.9-0.2,3.9-0.3,6.7c-0.1,1.9-0.1,3.9-0.1,6.2c0,4.5,0.2,8.9,0.5,13.2   C6.3,74.8,6.6,77.6,7,80c0.6,4,1.4,7.5,2.3,10.4c-0.2,0-0.3,0-0.5,0c-1.4,0-3.8-0.2-3.8,1.9C5,94.5,7.6,94,9.1,94   c1.8,0,3.7,0.2,5.5,0.3H15c2.6,0.3,5.1,0.5,7.7,0.5c1.4,0,4.1,0.4,5.2-0.6c1.2-1.1,0.3-3.1-1.2-3.1c1.1-2.9,2.2-6.5,3.1-10.6   c0.6-2.5,1.1-5.3,1.5-8.2c0.4-3,0.8-6.1,1.1-9.2c0.1-0.2,0.1-0.5,0.1-0.8c0.1-0.9,0.2-1.8,0.2-2.8c0.1-2.3,0.2-4.3,0.3-6.2   s0.1-4.4,0.1-6.7s0-4.4-0.1-6.4C33,40.1,33,40,33,39.8z M27.7,71.9c-0.3,2.1-0.7,4.2-1.1,6.2c-0.4-1.2-0.9-2.3-1.4-3.3   c-1.4-2.9-3-5.4-5.1-7.8c-0.3-0.4-0.8-0.6-1.3-0.6s-1,0.2-1.3,0.5c-2.2,2.2-4.1,4.7-5.6,7.4c-0.6,1-1.1,2.1-1.6,3.3   c-0.2-1.9-0.5-3.8-0.6-5.9c-0.3-3.1-0.4-6.2-0.5-9.4c1.3-3.3,2.8-6.1,4.7-8.6c1.6-2.1,3.5-4,5.7-5.7c2.1,1.9,3.8,3.9,5.3,6.1   c1.7,2.6,3,5.5,4,8.8C28.5,65.8,28.1,68.9,27.7,71.9z M27.7,52c-1.9-2.9-4.2-5.4-7-7.8c-0.6-0.5-1.5-0.6-2.2-0.1   c-3,2.2-5.5,4.6-7.5,7.3c-0.6,0.8-1.2,1.7-1.8,2.6c0-0.5,0-0.9,0-1.3c0.1-2.8,0.2-4.8,0.3-6.6c0.1-2.3,0.3-4.4,0.5-6.3   c1.2-3.4,2.8-6.2,4.7-8.8c1.6-2.1,3.4-4,5.6-5.7c2,1.9,3.7,3.9,5.2,6.1c1.7,2.6,3,5.5,4,8.9c0.1,2,0.1,4.1,0.1,6.4   c0,2.3-0.1,4.8-0.1,6.6c0,0.4,0,0.8,0,1.2C28.8,53.7,28.3,52.8,27.7,52z M20.7,9.4c4.2,5.1,6.6,11.4,7.8,20.3   c-0.1-0.1-0.1-0.2-0.2-0.3c-1.9-2.9-4.1-5.4-6.9-7.8c-0.6-0.5-1.6-0.6-2.2-0.1c-3,2.2-5.4,4.6-7.4,7.3c-0.1,0.1-0.2,0.2-0.2,0.4   C13.3,20.4,16.2,14.2,20.7,9.4z M14.9,90.8c-0.6-0.1-1.2-0.1-1.9-0.2v-0.1c-0.6-1.7-1.1-3.6-1.6-5.8c1-3.3,2.1-6.2,3.5-8.7   c1.1-1.9,2.3-3.6,3.7-5.2c1.3,1.7,2.4,3.5,3.3,5.4c1.2,2.6,2.2,5.5,2.9,8.9c-0.7,2.3-1.4,4.4-2.2,6.1c-2.5,0-4.9-0.1-7.4-0.4   L14.9,90.8z M87.3,17l-0.1-0.1c-0.6-0.6-1.6-0.7-2.3-0.2c-7.2,5-11.2,17.6-12.6,39.7c-0.9,14.5,0.2,27.7,2.8,34.9   c-0.1,0-0.2,0-0.3,0c-1.2-0.1-2.8-0.5-3.6,0.6c-0.8,1.1,0,2.7,1.3,2.8c1.6,0.1,3.2,0.2,4.8,0.2c0.9,0,1.7,0,2.6,0l2.6-0.1   c1.8-0.1,3.6-0.1,5.4,0c1.5,0.1,4.4,0.8,4.6-1.5c0.2-2.2-2.5-2-4-2.1c3-7,5.3-19.1,6.2-33.4C96,35.9,93.7,23,87.3,17z M75.9,56.6   c1.1-16.9,3.7-28,8-33.9l-4.6,68.6c-0.1,0-0.3,0-0.4,0C76.2,85.1,74.9,71.5,75.9,56.6z M91,57.6c-0.9,14.8-3.4,27.5-6.6,33.6   c-0.5,0-1,0-1.5,0l4.5-68.1C90.9,29.5,92.1,40.8,91,57.6z M65,61.3v-0.2c-1.5-19.4-6.1-30.3-14.6-34.5c-0.6-0.3-1.3-0.2-1.8,0.1   C40.9,32.1,38,43.6,39.5,63c0.1,1.4,0.2,2.8,0.4,4.3v0.1c1.2,9.7,3.5,18.1,6.5,23.5c-0.9,0.1-1.9,0.1-2.5,0.5   C42.3,92.5,43,95,44.8,95c1.1,0,2.3-0.3,3.4-0.4c1.1-0.1,2.2-0.2,3.3-0.3c2.1-0.1,4.3-0.2,6.4-0.1c1.1,0,2.3,0.1,3.4,0.2   c0.8,0.1,1.8,0.4,2.6,0.2c1.7-0.4,1.8-2.9,0.1-3.5c-0.5-0.2-1.1-0.3-1.6-0.3C64.8,83.9,65.8,72.8,65,61.3z M42.8,60   c-0.1-1-0.1-1.9-0.1-2.8L57.8,42c0.2,0.7,0.5,1.5,0.7,2.2L42.8,60z M49.7,30.4c2.7,1.6,4.8,4.2,6.6,7.9L42.7,52.1   C42.9,41.3,45.2,34.2,49.7,30.4z M50.8,90.7c-0.1,0-0.3,0-0.4,0c-3.2-4.8-5.8-13.5-7-23.5v-0.1c-0.1-0.8-0.2-1.6-0.3-2.4l16.4-16.5   c0.8,3.8,1.4,8.2,1.8,13.1v0.2c0.9,11.6-0.3,23-2.9,29c-0.4,0-0.8,0-1.2,0C55.1,90.5,53,90.6,50.8,90.7z"/>
</g>
</svg>